<svg xmlns="http://www.w3.org/2000/svg" viewBox="0 0 64 64">
  <defs>
    <linearGradient id="bg" x1="12" x2="52" y1="8" y2="58" gradientUnits="userSpaceOnUse">
      <stop stop-color="#334842"/>
      <stop offset="1" stop-color="#18221f"/>
    </linearGradient>
    <linearGradient id="ring" x1="18" x2="48" y1="14" y2="52" gradientUnits="userSpaceOnUse">
      <stop stop-color="#fde68a"/>
      <stop offset="1" stop-color="#f59e0b"/>
    </linearGradient>
  </defs>
  <rect width="64" height="64" rx="16" fill="url(#bg)"/>
  <path d="M18 12h28a6 6 0 0 1 6 6v28a6 6 0 0 1-6 6H18a6 6 0 0 1-6-6V18a6 6 0 0 1 6-6Z" fill="#fffaf1" opacity=".08"/>
  <circle cx="32" cy="32" r="20" fill="#fffaf1"/>
  <path d="M32 12a20 20 0 1 1-17.32 30" fill="none" stroke="url(#ring)" stroke-width="6" stroke-linecap="round"/>
  <circle cx="32" cy="32" r="14" fill="#f7f3ec"/>
  <path d="M32 22v11l8 5" fill="none" stroke="#283b36" stroke-width="4.5" stroke-linecap="round" stroke-linejoin="round"/>
  <circle cx="32" cy="32" r="3" fill="#f59e0b"/>
</svg>
